<?xml version="1.0" encoding="utf-8"?>
<!-- Generator: Adobe Illustrator 16.0.0, SVG Export Plug-In . SVG Version: 6.00 Build 0)  -->
<!DOCTYPE svg PUBLIC "-//W3C//DTD SVG 1.1//EN" "http://www.w3.org/Graphics/SVG/1.1/DTD/svg11.dtd">
<svg version="1.1" id="Capa_2_copia" xmlns="http://www.w3.org/2000/svg" xmlns:xlink="http://www.w3.org/1999/xlink" x="0px"
	 y="0px" width="800px" height="600px" viewBox="0 0 800 600" enable-background="new 0 0 800 600" xml:space="preserve">
<path fill="#9E9E9E" d="M569.612,240.647c2.679,3.092,0.102,9.148-1.446,12.124c-1.549,2.976-4.879,7.922-8.088,5.37
	c-3.209-2.553-4.801-12.33-2.757-15.047S564.213,234.414,569.612,240.647z"/>
<path fill="#FFFFFF" stroke="#9E9E9E" stroke-miterlimit="10" d="M585.486,448.695l-0.334-6.666
	c-0.334-6.668-3.333-7.334-8.333-13.334s-3.333-9-6-17s0.667-10,3.333-14.666c2.666-4.668,3.667-8,3.667-9.668
	c0-1.666,8.667-7,13.667-15s7.333-14,6.666-16s0.334-11,0-14.666s-3-8.334-4.666-10s-7.666-12-14-15.666
	c-6.334-3.668-4.666-4.334-5.666-11c3.334-11-1.168-20.333-2.168-23.5s-5-12.833-5-12.833l-1-2.834c0,0-1.666-5.167-5.166-11.417
	c-1.75-3.75-2.25-7.75,0.5-10.75c7.012-7.649,8.141-2.378,7.768-3.591c-1.717-5.58-5.889-9.22-10.768-12.909
	c-2.561-1.936-3.529-3.969-6.166-5.667c-1.818-1.171-2.871-4.885-4.505-5.991c-5.667-3.833-11.556-3.735-12.495-3.676
	c-2.666,0.167-7.334-2.499-16.168-1.499s-11.666-2.833-14-4.667s-7.5-3.333-9.5-3.333s-6.166-0.167-7.833,0.167
	s-3.667-3.167-5.334-3.167s-20.167-0.333-26.167-0.333c-14.667-6.833-25.333-3.333-32.833-1.5
	c-28.5-8.5-31.833,17.333-33.333,17.542s-7,0.292-8.167,0.125s-3.167-0.167-6,0s-4,2.333-7.333,4.5s-3.167,2.5-5.833,4.5
	s-6.5,6-10.167,8.333s-2.333,2-4,3s-3.5,0.5-3.833,3s-2,5.666,1.333,6.333s4.667,0,6.667,1.667s-0.5,2.333-1.167,4.167
	c-0.667,1.833-3.333,2.667-4.167,3.5s-6.167,6.167-8.333,8.333s-3.5,3-6.333,5s-3,1.667-5.167,2.834
	c-2.167,1.166-9.5,3.666-11.667,6.666s-2.667,3.667-4.167,5.667s-4.333,4.167-6,6.334s-4.667,5.333-5.5,5.5s-0.5,0.833-1.833,2.5
	s-1.167,3.666-2,5.666s-1.667,3-2.833,5s-5.5,4.668-7.833,6.5c-2.333,1.834-4.333,2.834-5.333,4s-4.666,2-5.5,2.166
	s-2,1.668-4.167,3c-2.167,1.334-4.167,4.668-6.667,8c-2.5,3.334-6.833,7.834-8.667,10s-3.5,3-6.333,4.668
	c-2.833,1.666-3.667,4.166-5.167,5.166s-2.667,1.5-4.833,1.809c-2.167,0.307-2.667,0.191-7,0.025c-4.333-0.168-0.833,0.5-1.5,2
	s0,3.832,0,6.166s1.167,2.666,2,4.166s5.667,6.668,7.833,8.668s2.5,2.5,2.5,2.5s-1.333,1.668-2.833,3c-1.5,1.334-3,1.5-4.167,2.334
	c-1.167,0.832-2.167,1.834-4,3s-3,1.666-5,2.334c-2,0.666-0.833,3.332-1.833,5.666c-1,2.332-3.667,5.834-4.5,7.334
	s-3.167,5.166-4,6.5s-2.167,5.166-3.333,7.332c-1.167,2.168-0.833,2.334-1.667,4s-1.167,2.168-3.667,0.666c-2.5-1.5-2.389,0-2.389,0
	s-0.361,3-0.111,5s0,4,0,5s0,3,0,4.75s-0.25,2.5-1.5,4.75s-0.5,4-1.75,7"/>
<path fill="#9E9E9E" d="M448.32,229.196c0,0-3.667-3.167-4.667-6.833s-10.667-20.167-19-17.5s-12.834,9.5-16.167,16.833
	s-5.5,13.833-1.5,15.5s18.501,3.167,21.834,3.333s10.333-0.667,12.333-1.833s4.499-5.5,5.333-6S448.82,231.196,448.32,229.196z"/>
<path fill="#9E9E9E" d="M539.82,289.029c-1.8,1.148-11.001,6.833-19.334-3.833c-3-3.333-12.75-7-6.75,4
	c7.847,9.001,15.916,12.667,18.75,13.667s6.166,2,11.5,0s12.834-5,15.167-6.5s9.666-8,1.833-7s-20,1.833-15.5-21.167c0-6-3.5-10-5,0
	S542.258,287.474,539.82,289.029z"/>
<path fill="none" stroke="#000000" stroke-width="0.25" stroke-miterlimit="10" d="M474.236,269.196c0,0-25.25-13-37.5-3.75"/>
<path fill="none" stroke="#000000" stroke-width="0.25" stroke-miterlimit="10" d="M490.236,283.061c0,0-11.75-14.615-46.5-1.615"/>
<path fill="none" stroke="#000000" stroke-width="0.25" stroke-miterlimit="10" d="M488.736,290.196c0,0-31.25-5.75-48.75,5"/>
<path fill="none" stroke="#9E9E9E" stroke-miterlimit="10" d="M379.486,226.216c-9.5,1.98-18.5,6.862-23.5,11.671
	s-4.752,7.695-7.543,7.335"/>
<path fill="none" stroke="#000000" stroke-width="0.5" stroke-miterlimit="10" d="M534.986,306.195c0,0,0.5,15.5-9,20"/>
<path fill="#9E9E9E" d="M504.986,332.195c-10.93-1.338-10-2-21.5-2.5s-13-0.125-14,1.438s7.833-1.688,25.25,1.438
	s22.083,2.793,25.25,3.125c3.167,0.334,18.25-2.088,21.5-3.088S521.319,334.195,504.986,332.195z"/>
<path fill="#FFFFFF" stroke="#9E9E9E" stroke-miterlimit="10" d="M474.236,346.363c0,0,25.25,5.998,51.75-5.334
	c26.5-11.334,15.5-8.422,15.5-8.422"/>
</svg>
