<?xml version="1.0" encoding="utf-8"?>
<!-- Generator: Adobe Illustrator 16.0.0, SVG Export Plug-In . SVG Version: 6.00 Build 0)  -->
<!DOCTYPE svg PUBLIC "-//W3C//DTD SVG 1.1//EN" "http://www.w3.org/Graphics/SVG/1.1/DTD/svg11.dtd">
<svg version="1.1" id="Capa_2_copia" xmlns="http://www.w3.org/2000/svg" xmlns:xlink="http://www.w3.org/1999/xlink" x="0px"
	 y="0px" width="800px" height="600px" viewBox="0 0 800 600" enable-background="new 0 0 800 600" xml:space="preserve">
<g>
	<path d="M569.486,240.508c0.5,2.312,0.75,4.5,0.5,5.875s-2.738,8.551-4.875,8.75s-3,0.188-3.312-0.562s-3.25-6.312-2.562-8.5
		s2.5-4.062,4.438-5.125s4.188-2.812,4.562-2.5S569.486,240.508,569.486,240.508z"/>
	<path d="M431.5,219.156c0,0-11.18-8.062-16.014,3.406c-0.833,2.634-1.999,12.968,6.167,13.468c6,0,14.523-2.188,11.904-13.468
		C431.5,219.156,431.5,219.156,431.5,219.156z"/>
	<path fill="#FFFFFF" d="M425.486,214.696c0,0,8.166-0.167,8,3.167c-4,1.5-6.834,1.833-8,2.833s-6.667,3.833-3.5,6
		c2,1.667,4.533,1.5,5.267,0s2.567-5.935,6.9-4.134c1,0.801,0.667,2.678,0,5.323s2.833,6.979,5.333,5.145s3.167-3.333,2.167-7
		s-1.833-10.833-4.833-12.333s-8.833-2.833-10.5-2.667S421.486,213.029,425.486,214.696z"/>
</g>
</svg>
