<?xml version="1.0" encoding="utf-8"?>
<!-- Generator: Adobe Illustrator 16.0.0, SVG Export Plug-In . SVG Version: 6.00 Build 0)  -->
<!DOCTYPE svg PUBLIC "-//W3C//DTD SVG 1.1//EN" "http://www.w3.org/Graphics/SVG/1.1/DTD/svg11.dtd">
<svg version="1.1" id="Capa_1" xmlns="http://www.w3.org/2000/svg" xmlns:xlink="http://www.w3.org/1999/xlink" x="0px" y="0px"
	 width="13.333px" height="30.667px" viewBox="0 0 13.333 30.667" enable-background="new 0 0 13.333 30.667" xml:space="preserve">
<g>
	<path d="M9.542,27.093H2.383v-0.879h2.568c-0.475-0.41-0.713-0.928-0.713-1.553c0-0.384,0.076-0.717,0.227-1
		c0.152-0.283,0.361-0.486,0.628-0.608s0.654-0.183,1.162-0.183h3.286v0.879H6.255c-0.439,0-0.759,0.095-0.96,0.285
		c-0.199,0.19-0.3,0.46-0.3,0.809c0,0.26,0.067,0.505,0.202,0.734c0.136,0.229,0.318,0.393,0.55,0.49s0.55,0.146,0.957,0.146h2.837
		V27.093z"/>
	<path d="M6.949,21.859c-0.96,0-1.671-0.267-2.134-0.801c-0.385-0.445-0.576-0.989-0.576-1.631c0-0.713,0.233-1.295,0.701-1.748
		c0.467-0.452,1.111-0.678,1.936-0.678c0.668,0,1.192,0.1,1.574,0.3c0.383,0.2,0.68,0.491,0.892,0.874s0.317,0.8,0.317,1.252
		c0,0.727-0.232,1.312-0.698,1.761S7.825,21.859,6.949,21.859z M6.949,20.957c0.664,0,1.161-0.146,1.491-0.436
		c0.331-0.289,0.496-0.654,0.496-1.094c0-0.436-0.166-0.799-0.498-1.088c-0.332-0.29-0.838-0.436-1.519-0.436
		c-0.642,0-1.127,0.146-1.458,0.438c-0.33,0.291-0.495,0.653-0.495,1.086c0,0.439,0.165,0.805,0.493,1.094
		C5.788,20.811,6.285,20.957,6.949,20.957z"/>
	<path d="M9.542,15.97H4.356v-0.785h0.728c-0.254-0.163-0.458-0.38-0.612-0.65c-0.155-0.27-0.232-0.577-0.232-0.922
		c0-0.385,0.08-0.699,0.239-0.945s0.382-0.419,0.669-0.52c-0.605-0.41-0.908-0.944-0.908-1.602c0-0.515,0.143-0.91,0.428-1.188
		c0.284-0.276,0.723-0.414,1.315-0.414h3.56v0.873H6.275c-0.352,0-0.604,0.029-0.759,0.086c-0.155,0.057-0.279,0.16-0.374,0.311
		C5.047,10.364,5,10.54,5,10.742c0,0.364,0.121,0.667,0.363,0.908c0.243,0.24,0.631,0.361,1.165,0.361h3.013v0.879H6.172
		c-0.391,0-0.684,0.071-0.879,0.215C5.098,13.248,5,13.482,5,13.808c0,0.247,0.064,0.476,0.195,0.686s0.32,0.362,0.571,0.457
		c0.251,0.094,0.612,0.141,1.084,0.141h2.69V15.97z"/>
	<path d="M7.872,4.091l0.112-0.908c0.53,0.143,0.942,0.408,1.235,0.795c0.293,0.388,0.439,0.883,0.439,1.484
		c0,0.759-0.233,1.36-0.701,1.805C8.491,7.711,7.836,7.933,6.993,7.933c-0.873,0-1.549-0.225-2.031-0.674S4.239,6.228,4.239,5.511
		c0-0.693,0.236-1.26,0.708-1.699s1.136-0.658,1.992-0.658c0.052,0,0.13,0.001,0.234,0.004v3.867
		c0.569-0.032,1.006-0.193,1.309-0.482c0.303-0.29,0.454-0.651,0.454-1.084c0-0.322-0.084-0.598-0.254-0.826
		C8.512,4.405,8.243,4.224,7.872,4.091z M6.451,6.976V4.082C6.014,4.121,5.688,4.231,5.469,4.414
		C5.131,4.693,4.961,5.056,4.961,5.501c0,0.404,0.135,0.744,0.405,1.019S5.999,6.947,6.451,6.976z"/>
</g>
</svg>
