<?xml version="1.0" encoding="utf-8"?>
<!-- Generator: Adobe Illustrator 17.0.0, SVG Export Plug-In . SVG Version: 6.00 Build 0)  -->
<!DOCTYPE svg PUBLIC "-//W3C//DTD SVG 1.1//EN" "http://www.w3.org/Graphics/SVG/1.1/DTD/svg11.dtd">
<svg version="1.1" id="Layer_1" xmlns="http://www.w3.org/2000/svg" xmlns:xlink="http://www.w3.org/1999/xlink" x="0px" y="0px"
	 width="348.956px" height="67px" viewBox="0 0 348.956 67" enable-background="new 0 0 348.956 67" xml:space="preserve">
<line fill="none" stroke="#000000" stroke-linecap="round" stroke-miterlimit="10" x1="196.5" y1="22" x2="196.5" y2="47"/>
<g>
	<path fill="#4AA3DF" d="M23.673,16.454c-3.05,0-5.536,2.434-5.632,5.461c-5.39,2.11-9.209,7.142-9.763,12.91
		c-0.066,0.682,0.434,1.289,1.116,1.354c0.04,0.004,0.08,0.006,0.12,0.006c0.632,0,1.172-0.48,1.234-1.122
		c0.451-4.691,3.478-8.799,7.782-10.661c0.884,1.963,2.855,3.336,5.143,3.336c3.111,0,5.642-2.531,5.642-5.642
		S26.783,16.454,23.673,16.454z M23.673,25.566c-1.913,0-3.47-1.556-3.47-3.47s1.557-3.47,3.47-3.47s3.47,1.556,3.47,3.47
		S25.586,25.566,23.673,25.566z"/>
	<path fill="#61CD72" d="M30.794,48.7c-0.29-0.621-1.028-0.89-1.649-0.6c-4.272,1.991-9.347,1.467-13.135-1.297
		c1.244-1.758,1.427-4.152,0.265-6.125c-1.01-1.715-2.874-2.78-4.866-2.78c-1.002,0-1.99,0.27-2.858,0.781
		c-1.298,0.764-2.222,1.989-2.599,3.448c-0.378,1.459-0.165,2.977,0.6,4.276c1.01,1.715,2.874,2.78,4.866,2.78
		c0.943,0,1.872-0.242,2.701-0.696c2.764,2.169,6.159,3.295,9.578,3.295c2.212,0,4.434-0.47,6.497-1.432
		C30.814,50.06,31.083,49.321,30.794,48.7z M11.417,47.011c-1.226,0-2.374-0.655-2.995-1.71c-0.47-0.799-0.601-1.733-0.369-2.63
		c0.232-0.897,0.8-1.651,1.599-2.121c0.534-0.314,1.141-0.48,1.756-0.48c1.226,0,2.373,0.655,2.995,1.71
		c0.971,1.649,0.419,3.78-1.23,4.751C12.64,46.845,12.032,47.011,11.417,47.011z"/>
	<path fill="#FB7E00" d="M38.952,38.735c0.9-5.718-1.515-11.555-6.213-14.946c-0.556-0.402-1.331-0.276-1.733,0.28
		c-0.401,0.556-0.276,1.331,0.28,1.732c3.821,2.758,5.838,7.443,5.273,12.097c-0.2-0.022-0.401-0.036-0.603-0.036
		c-1.998,0-3.866,1.071-4.874,2.794c-0.761,1.301-0.97,2.82-0.588,4.278c0.382,1.458,1.308,2.68,2.609,3.441
		c0.864,0.505,1.848,0.773,2.844,0.773c1.998,0,3.866-1.07,4.874-2.794C42.362,43.722,41.516,40.347,38.952,38.735z M38.947,45.258
		c-0.62,1.06-1.769,1.719-2.999,1.719c-0.612,0-1.216-0.165-1.748-0.476c-0.8-0.468-1.37-1.219-1.605-2.116
		c-0.235-0.897-0.106-1.831,0.362-2.63c0.62-1.06,1.769-1.719,3-1.719c0.611,0,1.216,0.165,1.748,0.476
		C39.356,41.477,39.913,43.606,38.947,45.258z"/>
	<path fill="#414042" d="M64.619,35.545l4.038-7.816c0.08-0.16,0.19-0.307,0.33-0.44c0.14-0.133,0.323-0.2,0.55-0.2h0.76
		c0.146,0,0.273,0.054,0.38,0.16c0.106,0.107,0.159,0.233,0.159,0.38v12.913c0,0.147-0.053,0.273-0.159,0.38
		c-0.107,0.107-0.234,0.16-0.38,0.16h-0.82c-0.147,0-0.273-0.053-0.38-0.16s-0.16-0.233-0.16-0.38v-9.475l-3.118,6.017
		c-0.107,0.2-0.22,0.357-0.34,0.47c-0.12,0.113-0.28,0.17-0.479,0.17h-0.76c-0.2,0-0.36-0.057-0.48-0.17
		c-0.12-0.113-0.233-0.27-0.34-0.47l-3.118-6.017v9.475c0,0.147-0.053,0.273-0.16,0.38s-0.233,0.16-0.38,0.16h-0.819
		c-0.147,0-0.273-0.053-0.38-0.16c-0.107-0.107-0.16-0.233-0.16-0.38V27.629c0-0.147,0.053-0.273,0.16-0.38
		c0.107-0.106,0.233-0.16,0.38-0.16h0.759c0.227,0,0.41,0.067,0.55,0.2c0.14,0.133,0.25,0.28,0.33,0.44L64.619,35.545z"/>
	<path fill="#414042" d="M73.314,38.463c0-0.533,0.106-0.999,0.319-1.399c0.213-0.4,0.507-0.739,0.88-1.019
		c0.373-0.28,0.81-0.507,1.309-0.68c0.499-0.173,1.029-0.307,1.589-0.4l2.819-0.459v-0.26c0-0.68-0.224-1.189-0.67-1.529
		c-0.447-0.34-1.003-0.51-1.669-0.51c-0.587,0-1.029,0.107-1.329,0.32c-0.299,0.213-0.556,0.467-0.77,0.759
		c-0.08,0.107-0.167,0.18-0.26,0.22c-0.093,0.04-0.219,0.06-0.379,0.06h-0.6c-0.147,0-0.277-0.053-0.39-0.16
		c-0.113-0.107-0.164-0.233-0.15-0.38c0.027-0.293,0.143-0.593,0.35-0.899c0.206-0.307,0.486-0.58,0.839-0.82
		c0.353-0.24,0.76-0.436,1.219-0.59c0.46-0.153,0.949-0.23,1.469-0.23c0.6,0,1.156,0.087,1.669,0.26
		c0.513,0.173,0.953,0.427,1.319,0.759c0.367,0.333,0.653,0.746,0.86,1.239c0.206,0.493,0.31,1.06,0.31,1.7v6.096
		c0,0.147-0.053,0.273-0.16,0.38c-0.107,0.107-0.233,0.16-0.38,0.16H80.77c-0.147,0-0.273-0.053-0.38-0.16
		c-0.107-0.107-0.16-0.233-0.16-0.38v-0.819c-0.12,0.253-0.307,0.476-0.56,0.67c-0.253,0.193-0.543,0.357-0.87,0.49
		c-0.327,0.133-0.667,0.233-1.019,0.3c-0.353,0.067-0.683,0.1-0.989,0.1c-0.52,0-0.997-0.073-1.429-0.22
		c-0.433-0.147-0.8-0.343-1.099-0.59c-0.3-0.247-0.533-0.543-0.7-0.889C73.397,39.236,73.314,38.863,73.314,38.463z M76.992,39.563
		c0.479,0,0.919-0.073,1.319-0.22c0.4-0.147,0.743-0.35,1.029-0.61c0.287-0.26,0.506-0.57,0.66-0.93c0.153-0.36,0.23-0.76,0.23-1.2
		v-0.499l-2.359,0.379c-0.839,0.134-1.506,0.347-1.999,0.64c-0.493,0.293-0.739,0.673-0.739,1.14c0,0.147,0.033,0.293,0.1,0.439
		c0.066,0.147,0.173,0.287,0.319,0.42c0.147,0.133,0.337,0.24,0.57,0.32C76.355,39.523,76.644,39.563,76.992,39.563z"/>
	<path fill="#414042" d="M86.786,36.684v3.858c0,0.147-0.053,0.273-0.16,0.38c-0.107,0.107-0.233,0.16-0.379,0.16h-0.74
		c-0.147,0-0.273-0.053-0.38-0.16s-0.16-0.233-0.16-0.38V27.429c0-0.146,0.053-0.273,0.16-0.38c0.107-0.106,0.233-0.159,0.38-0.159
		h0.74c0.146,0,0.273,0.053,0.379,0.159c0.107,0.107,0.16,0.234,0.16,0.38v6.617l3.898-3.019c0.08-0.066,0.183-0.14,0.31-0.22
		c0.127-0.079,0.283-0.119,0.47-0.119h0.999c0.133,0,0.247,0.047,0.34,0.139c0.093,0.094,0.14,0.207,0.14,0.34
		c0,0.067-0.01,0.13-0.03,0.19c-0.02,0.06-0.083,0.13-0.19,0.21l-4.817,3.758l5.317,4.897c0.08,0.08,0.133,0.147,0.16,0.2
		c0.027,0.053,0.04,0.113,0.04,0.18c0,0.133-0.047,0.247-0.14,0.34c-0.093,0.093-0.207,0.14-0.34,0.14h-0.94
		c-0.199,0-0.37-0.04-0.51-0.12c-0.14-0.08-0.243-0.153-0.31-0.22L86.786,36.684z"/>
	<path fill="#414042" d="M97.2,28.569c0,0.147-0.053,0.273-0.16,0.379c-0.107,0.107-0.233,0.16-0.38,0.16h-1.139
		c-0.147,0-0.273-0.053-0.38-0.16c-0.107-0.106-0.16-0.233-0.16-0.379v-1.14c0-0.146,0.053-0.273,0.16-0.38
		c0.107-0.106,0.233-0.159,0.38-0.159h1.139c0.147,0,0.273,0.053,0.38,0.159c0.107,0.107,0.16,0.234,0.16,0.38V28.569z M97,40.542
		c0,0.147-0.053,0.273-0.16,0.38c-0.107,0.107-0.233,0.16-0.379,0.16h-0.74c-0.147,0-0.273-0.053-0.38-0.16
		c-0.107-0.107-0.16-0.233-0.16-0.38v-9.315c0-0.146,0.053-0.273,0.16-0.38c0.107-0.106,0.233-0.159,0.38-0.159h0.74
		c0.146,0,0.273,0.053,0.379,0.159c0.107,0.107,0.16,0.234,0.16,0.38V40.542z"/>
	<path fill="#414042" d="M109.233,40.542c0,0.147-0.053,0.273-0.16,0.38c-0.107,0.107-0.233,0.16-0.379,0.16h-0.74
		c-0.147,0-0.273-0.053-0.38-0.16c-0.107-0.107-0.16-0.233-0.16-0.38v-5.277c0-1.026-0.247-1.792-0.739-2.299
		c-0.493-0.506-1.18-0.759-2.059-0.759c-0.84,0-1.516,0.253-2.029,0.759c-0.513,0.507-0.77,1.273-0.77,2.299v5.277
		c0,0.147-0.053,0.273-0.16,0.38c-0.107,0.107-0.233,0.16-0.379,0.16h-0.74c-0.147,0-0.273-0.053-0.38-0.16
		c-0.107-0.107-0.16-0.233-0.16-0.38v-9.315c0-0.146,0.053-0.273,0.16-0.38c0.107-0.106,0.233-0.159,0.38-0.159h0.74
		c0.146,0,0.273,0.053,0.379,0.159c0.107,0.107,0.16,0.234,0.16,0.38v0.62c0.253-0.333,0.63-0.643,1.129-0.929
		c0.5-0.287,1.156-0.43,1.969-0.43c0.626,0,1.206,0.103,1.739,0.31c0.533,0.207,0.989,0.5,1.369,0.88
		c0.38,0.379,0.676,0.849,0.889,1.409c0.213,0.56,0.32,1.186,0.32,1.879V40.542z"/>
	<path fill="#414042" d="M111.632,35.225c0.04-0.733,0.18-1.392,0.42-1.979c0.24-0.586,0.56-1.082,0.96-1.489
		c0.4-0.406,0.87-0.719,1.409-0.939c0.54-0.22,1.123-0.33,1.749-0.33c0.826,0,1.486,0.143,1.979,0.43
		c0.493,0.287,0.866,0.596,1.119,0.929v-0.62c0-0.146,0.053-0.273,0.16-0.38c0.107-0.106,0.233-0.159,0.38-0.159h0.74
		c0.146,0,0.273,0.053,0.38,0.159c0.106,0.107,0.159,0.234,0.159,0.38v9.715c0,1.386-0.393,2.489-1.179,3.308
		c-0.786,0.819-1.966,1.229-3.538,1.229c-0.8,0-1.483-0.096-2.049-0.288c-0.567-0.192-1.033-0.434-1.4-0.725
		s-0.639-0.61-0.819-0.954c-0.18-0.345-0.277-0.676-0.29-0.994c-0.013-0.146,0.037-0.271,0.15-0.377
		c0.113-0.106,0.243-0.159,0.39-0.159h0.6c0.147,0,0.27,0.036,0.37,0.108c0.1,0.072,0.196,0.214,0.29,0.425
		c0.04,0.079,0.104,0.188,0.19,0.327c0.087,0.138,0.227,0.276,0.42,0.415c0.193,0.138,0.446,0.257,0.759,0.356
		c0.313,0.099,0.71,0.148,1.189,0.148c0.44,0,0.849-0.044,1.229-0.13c0.38-0.087,0.71-0.23,0.989-0.43
		c0.28-0.2,0.496-0.467,0.65-0.8c0.153-0.333,0.23-0.739,0.23-1.219v-1.259c-0.267,0.359-0.647,0.676-1.139,0.949
		c-0.493,0.273-1.146,0.41-1.959,0.41c-0.627,0-1.209-0.11-1.749-0.33c-0.539-0.22-1.009-0.533-1.409-0.94
		c-0.4-0.407-0.72-0.903-0.96-1.489c-0.24-0.586-0.38-1.246-0.42-1.979c-0.013-0.199-0.02-0.419-0.02-0.659
		C111.612,35.645,111.618,35.425,111.632,35.225z M119.267,35.165c-0.04-0.946-0.323-1.675-0.849-2.189
		c-0.527-0.513-1.209-0.77-2.049-0.77c-0.88,0-1.572,0.28-2.079,0.839c-0.507,0.56-0.786,1.32-0.84,2.279
		c-0.013,0.373-0.013,0.746,0,1.119c0.053,0.96,0.333,1.72,0.84,2.279c0.507,0.56,1.199,0.84,2.079,0.84
		c0.839,0,1.522-0.26,2.049-0.78c0.527-0.519,0.81-1.246,0.849-2.179c0.013-0.2,0.02-0.439,0.02-0.719
		C119.287,35.605,119.281,35.365,119.267,35.165z"/>
	<path fill="#414042" d="M133.479,26.89c0.813,0,1.529,0.127,2.149,0.379c0.62,0.253,1.146,0.564,1.579,0.929
		c0.433,0.367,0.763,0.76,0.989,1.18c0.227,0.42,0.347,0.796,0.36,1.129c0.013,0.12-0.027,0.223-0.12,0.31
		c-0.093,0.087-0.2,0.13-0.32,0.13h-0.819c-0.147,0-0.264-0.026-0.35-0.08c-0.087-0.053-0.176-0.173-0.27-0.359
		c-0.067-0.133-0.177-0.303-0.33-0.51c-0.153-0.206-0.36-0.406-0.62-0.599c-0.26-0.193-0.576-0.36-0.949-0.5
		c-0.373-0.14-0.806-0.21-1.299-0.21c-0.373,0-0.73,0.043-1.069,0.13c-0.34,0.087-0.643,0.217-0.91,0.39
		c-0.267,0.173-0.48,0.39-0.64,0.65c-0.16,0.26-0.24,0.564-0.24,0.91c0,0.347,0.077,0.639,0.23,0.879
		c0.153,0.24,0.399,0.457,0.739,0.65c0.34,0.193,0.77,0.37,1.289,0.53c0.52,0.16,1.152,0.34,1.899,0.54
		c0.76,0.2,1.403,0.42,1.929,0.66c0.526,0.24,0.956,0.51,1.289,0.81c0.333,0.3,0.576,0.647,0.73,1.039
		c0.153,0.393,0.23,0.837,0.23,1.329c0,0.6-0.13,1.149-0.39,1.649c-0.26,0.499-0.624,0.93-1.089,1.289
		c-0.467,0.359-1.029,0.639-1.689,0.839c-0.66,0.2-1.396,0.3-2.209,0.3c-0.773,0-1.486-0.113-2.139-0.34
		c-0.653-0.227-1.213-0.52-1.679-0.879c-0.467-0.36-0.837-0.76-1.109-1.2c-0.273-0.44-0.417-0.872-0.43-1.299
		c0-0.12,0.043-0.223,0.13-0.31c0.087-0.087,0.19-0.13,0.31-0.13h0.82c0.133,0,0.25,0.027,0.35,0.08c0.1,0.053,0.19,0.173,0.27,0.36
		c0.08,0.187,0.203,0.39,0.37,0.61c0.167,0.22,0.39,0.427,0.67,0.62c0.28,0.193,0.62,0.356,1.019,0.49c0.4,0.133,0.873,0.2,1.42,0.2
		c0.466,0,0.91-0.053,1.329-0.16c0.419-0.107,0.79-0.26,1.109-0.46c0.32-0.2,0.573-0.44,0.76-0.719c0.187-0.28,0.28-0.593,0.28-0.94
		s-0.107-0.643-0.32-0.889c-0.213-0.247-0.52-0.47-0.919-0.67c-0.4-0.2-0.889-0.383-1.469-0.55c-0.58-0.167-1.236-0.343-1.969-0.53
		c-0.667-0.173-1.232-0.382-1.699-0.63c-0.467-0.246-0.846-0.53-1.139-0.849c-0.293-0.32-0.504-0.673-0.63-1.059
		c-0.127-0.387-0.19-0.806-0.19-1.259c0-0.493,0.1-0.973,0.3-1.44c0.2-0.466,0.496-0.879,0.889-1.239
		c0.393-0.36,0.886-0.65,1.479-0.87C131.983,27,132.68,26.89,133.479,26.89z"/>
	<path fill="#414042" d="M140.835,34.885c0.053-0.613,0.2-1.186,0.44-1.719c0.24-0.533,0.553-0.999,0.94-1.399
		c0.386-0.4,0.85-0.713,1.389-0.94c0.54-0.226,1.143-0.339,1.809-0.339c0.72,0,1.362,0.116,1.929,0.35
		c0.567,0.233,1.049,0.57,1.449,1.009c0.4,0.44,0.706,0.973,0.92,1.599c0.213,0.626,0.32,1.326,0.32,2.099v0.54
		c0,0.147-0.054,0.273-0.16,0.379c-0.107,0.107-0.233,0.16-0.38,0.16h-6.876v0.12c0.026,0.906,0.303,1.603,0.829,2.089
		c0.526,0.487,1.182,0.73,1.969,0.73c0.733,0,1.282-0.103,1.649-0.31c0.366-0.206,0.662-0.436,0.889-0.69
		c0.106-0.106,0.2-0.18,0.28-0.22c0.079-0.04,0.199-0.06,0.359-0.06h0.6c0.147,0,0.28,0.054,0.4,0.16
		c0.12,0.107,0.167,0.233,0.14,0.38c-0.04,0.24-0.153,0.504-0.34,0.789c-0.187,0.287-0.457,0.553-0.81,0.8
		c-0.353,0.247-0.793,0.453-1.319,0.62c-0.527,0.166-1.143,0.25-1.849,0.25c-0.667,0-1.266-0.117-1.799-0.35
		c-0.533-0.233-0.996-0.553-1.389-0.96c-0.393-0.407-0.71-0.886-0.949-1.439c-0.24-0.553-0.387-1.156-0.44-1.809
		C140.768,36.111,140.768,35.498,140.835,34.885z M142.614,34.945h5.617v-0.06c0-0.813-0.257-1.462-0.77-1.949
		c-0.513-0.487-1.196-0.73-2.049-0.73c-0.387,0-0.746,0.063-1.079,0.19c-0.333,0.127-0.627,0.307-0.88,0.54
		c-0.253,0.233-0.453,0.516-0.6,0.849c-0.147,0.333-0.227,0.7-0.239,1.099V34.945z"/>
	<path fill="#414042" d="M161.683,40.542c0,0.147-0.053,0.273-0.16,0.38c-0.107,0.107-0.233,0.16-0.379,0.16h-0.74
		c-0.147,0-0.273-0.053-0.38-0.16c-0.107-0.107-0.16-0.233-0.16-0.38v-5.277c0-1.026-0.247-1.792-0.739-2.299
		c-0.493-0.506-1.18-0.759-2.059-0.759c-0.84,0-1.516,0.253-2.029,0.759c-0.513,0.507-0.77,1.273-0.77,2.299v5.277
		c0,0.147-0.053,0.273-0.16,0.38c-0.107,0.107-0.233,0.16-0.379,0.16h-0.74c-0.147,0-0.273-0.053-0.38-0.16s-0.16-0.233-0.16-0.38
		v-9.315c0-0.146,0.053-0.273,0.16-0.38c0.107-0.106,0.233-0.159,0.38-0.159h0.74c0.146,0,0.273,0.053,0.379,0.159
		c0.107,0.107,0.16,0.234,0.16,0.38v0.62c0.253-0.333,0.63-0.643,1.129-0.929c0.5-0.287,1.156-0.43,1.969-0.43
		c0.626,0,1.206,0.103,1.739,0.31c0.533,0.207,0.989,0.5,1.369,0.88c0.38,0.379,0.676,0.849,0.889,1.409
		c0.213,0.56,0.32,1.186,0.32,1.879V40.542z"/>
	<path fill="#414042" d="M170.499,38.204c0-0.253-0.07-0.463-0.21-0.63c-0.14-0.166-0.35-0.31-0.63-0.43
		c-0.279-0.12-0.636-0.233-1.069-0.34c-0.433-0.106-0.937-0.22-1.509-0.34c-1.08-0.226-1.836-0.602-2.269-1.129
		c-0.433-0.527-0.65-1.143-0.65-1.849c0-0.4,0.08-0.78,0.24-1.139c0.16-0.36,0.4-0.68,0.72-0.96c0.32-0.28,0.723-0.5,1.209-0.659
		c0.486-0.16,1.056-0.24,1.709-0.24c0.653,0,1.223,0.073,1.709,0.22c0.487,0.147,0.896,0.333,1.229,0.559
		c0.333,0.227,0.586,0.47,0.759,0.73c0.173,0.26,0.267,0.51,0.28,0.75c0.013,0.147-0.037,0.273-0.15,0.38
		c-0.113,0.107-0.244,0.16-0.39,0.16h-0.66c-0.08,0-0.177-0.016-0.29-0.05c-0.114-0.033-0.217-0.11-0.31-0.23
		c-0.173-0.226-0.43-0.416-0.77-0.57c-0.34-0.153-0.81-0.23-1.409-0.23c-0.613,0-1.109,0.113-1.489,0.34
		c-0.38,0.227-0.57,0.539-0.57,0.939c0,0.253,0.053,0.457,0.16,0.61c0.107,0.153,0.28,0.287,0.52,0.4
		c0.24,0.113,0.556,0.217,0.949,0.31c0.393,0.093,0.883,0.207,1.469,0.34c0.613,0.133,1.126,0.304,1.539,0.51
		c0.413,0.207,0.746,0.44,0.999,0.7c0.253,0.26,0.433,0.547,0.54,0.86s0.16,0.643,0.16,0.989c0,0.399-0.097,0.786-0.29,1.159
		c-0.193,0.373-0.47,0.7-0.829,0.979c-0.36,0.28-0.797,0.507-1.309,0.68c-0.513,0.173-1.096,0.26-1.749,0.26s-1.232-0.08-1.739-0.24
		c-0.507-0.16-0.939-0.356-1.299-0.59c-0.36-0.233-0.637-0.487-0.829-0.76c-0.193-0.273-0.297-0.53-0.31-0.77
		c-0.014-0.147,0.033-0.273,0.139-0.38c0.107-0.106,0.24-0.16,0.4-0.16h0.72c0.08,0,0.173,0.01,0.28,0.03
		c0.106,0.02,0.206,0.097,0.3,0.23c0.213,0.293,0.506,0.52,0.879,0.68c0.373,0.16,0.86,0.24,1.459,0.24
		c0.293,0,0.583-0.033,0.87-0.1c0.287-0.067,0.54-0.16,0.76-0.28c0.22-0.12,0.396-0.263,0.53-0.43
		C170.432,38.587,170.499,38.403,170.499,38.204z"/>
	<path fill="#414042" d="M174.216,34.885c0.053-0.613,0.2-1.186,0.44-1.719c0.24-0.533,0.553-0.999,0.94-1.399
		c0.386-0.4,0.849-0.713,1.389-0.94c0.54-0.226,1.143-0.339,1.809-0.339c0.72,0,1.362,0.116,1.929,0.35
		c0.567,0.233,1.049,0.57,1.449,1.009c0.4,0.44,0.707,0.973,0.92,1.599c0.213,0.626,0.32,1.326,0.32,2.099v0.54
		c0,0.147-0.054,0.273-0.16,0.379c-0.107,0.107-0.233,0.16-0.38,0.16h-6.876v0.12c0.026,0.906,0.303,1.603,0.83,2.089
		c0.526,0.487,1.182,0.73,1.969,0.73c0.733,0,1.282-0.103,1.649-0.31c0.366-0.206,0.662-0.436,0.89-0.69
		c0.106-0.106,0.2-0.18,0.28-0.22c0.079-0.04,0.199-0.06,0.359-0.06h0.6c0.147,0,0.28,0.054,0.4,0.16
		c0.12,0.107,0.167,0.233,0.14,0.38c-0.04,0.24-0.153,0.504-0.34,0.789c-0.187,0.287-0.457,0.553-0.81,0.8
		c-0.353,0.247-0.793,0.453-1.319,0.62c-0.527,0.166-1.143,0.25-1.849,0.25c-0.667,0-1.266-0.117-1.799-0.35
		c-0.533-0.233-0.996-0.553-1.389-0.96s-0.71-0.886-0.949-1.439c-0.24-0.553-0.387-1.156-0.44-1.809
		C174.149,36.111,174.149,35.498,174.216,34.885z M175.996,34.945h5.617v-0.06c0-0.813-0.257-1.462-0.77-1.949
		c-0.513-0.487-1.196-0.73-2.049-0.73c-0.387,0-0.746,0.063-1.079,0.19c-0.333,0.127-0.626,0.307-0.88,0.54
		c-0.253,0.233-0.453,0.516-0.6,0.849c-0.147,0.333-0.227,0.7-0.239,1.099V34.945z"/>
</g>
<g>
	<g>
		<path fill="#0AAA64" d="M220.976,44.406v-0.864c0-0.07-0.037-0.134-0.098-0.17l-1.774-1.034c-0.06-0.035-0.097-0.1-0.097-0.17
			v-2.316c0.074-0.03,0.149-0.063,0.22-0.104c1.166-0.661,1.314-2.597,0.332-4.319c-0.979-1.724-2.719-2.585-3.883-1.921
			c-1.165,0.66-1.314,2.595-0.331,4.319c0.14,0.247,0.296,0.476,0.462,0.684c0.027,0.034,0.042,0.075,0.042,0.119v1.472
			c0,0.151-0.164,0.246-0.295,0.17l-2.142-1.246c-0.06-0.035-0.098-0.1-0.098-0.17v-8.579c0-0.07-0.037-0.135-0.098-0.17
			l-0.557-0.322c-0.098-0.057-0.227-0.02-0.277,0.082c-0.667,1.348-1.04,2.859-1.04,4.464
			C211.341,39.751,215.612,44.172,220.976,44.406"/>
		<path fill="#EE3045" d="M215.648,28.321c0.061-0.035,0.135-0.035,0.196,0l2.004,1.158c-0.012,0.08-0.017,0.162-0.017,0.245
			c-0.008,1.34,1.591,2.435,3.574,2.449c1.983,0.011,3.598-1.065,3.606-2.405c0.008-1.339-1.594-2.434-3.576-2.448
			c-0.282-0.002-0.558,0.019-0.822,0.06c-0.043,0.007-0.087-0.001-0.125-0.023l-1.274-0.737c-0.131-0.076-0.131-0.265,0.001-0.34
			l2.15-1.233c0.061-0.035,0.135-0.035,0.196,0l7.474,4.317c0.061,0.035,0.136,0.035,0.196,0l0.538-0.31
			c0.098-0.057,0.13-0.185,0.068-0.28c-0.836-1.269-1.966-2.36-3.371-3.17c-4.647-2.684-10.536-1.253-13.453,3.164
			c-0.062,0.094-0.031,0.224,0.067,0.28l0.55,0.317c0.061,0.035,0.135,0.035,0.196,0L215.648,28.321z"/>
		<path fill="#1B459B" d="M229.526,32.337c0,0.07-0.038,0.134-0.098,0.169l-2.005,1.158c-0.063-0.052-0.129-0.098-0.201-0.14
			c-1.156-0.676-2.907,0.161-3.908,1.873c-1.001,1.711-0.878,3.647,0.278,4.324c1.156,0.677,2.905-0.161,3.907-1.874
			c0.143-0.242,0.264-0.491,0.36-0.739c0.016-0.041,0.044-0.075,0.082-0.097l1.277-0.735c0.131-0.076,0.295,0.02,0.294,0.171
			l-0.009,2.477c0,0.07-0.038,0.134-0.098,0.169l-7.425,4.288c-0.061,0.035-0.098,0.1-0.098,0.17v0.645
			c0,0.114,0.096,0.206,0.21,0.199c1.499-0.097,2.992-0.529,4.38-1.329c4.635-2.678,6.343-8.467,4.002-13.197
			c-0.05-0.102-0.178-0.139-0.277-0.083l-0.564,0.325c-0.061,0.035-0.098,0.099-0.098,0.169L229.526,32.337z"/>
	</g>
	<g>
		<path d="M323.546,24.709c0-0.245,0.096-0.453,0.288-0.624c0.192-0.17,0.421-0.256,0.688-0.256s0.496,0.085,0.688,0.256
			c0.192,0.171,0.288,0.379,0.288,0.624c0,0.235-0.096,0.44-0.288,0.616c-0.192,0.176-0.421,0.264-0.688,0.264
			s-0.496-0.088-0.688-0.264C323.643,25.149,323.546,24.944,323.546,24.709z M323.69,34.517v-6.48c0-0.16,0.077-0.291,0.232-0.392
			c0.155-0.101,0.354-0.152,0.6-0.152c0.245,0,0.448,0.051,0.608,0.152c0.16,0.102,0.24,0.232,0.24,0.392v6.48
			c0,0.139-0.083,0.267-0.248,0.384c-0.166,0.117-0.366,0.176-0.6,0.176c-0.235,0-0.432-0.059-0.592-0.176
			C323.771,34.784,323.69,34.656,323.69,34.517z"/>
		<path d="M326.827,32.021V30.55c0-0.843,0.325-1.579,0.976-2.208c0.651-0.629,1.43-0.944,2.336-0.944
			c0.885,0,1.658,0.312,2.32,0.936c0.661,0.624,0.992,1.363,0.992,2.216v1.472c0,0.832-0.333,1.571-1,2.216
			c-0.667,0.646-1.438,0.968-2.312,0.968c-0.886,0-1.659-0.32-2.32-0.96C327.157,33.605,326.827,32.864,326.827,32.021z
			 M328.506,32.017c0,0.434,0.16,0.824,0.48,1.168c0.32,0.345,0.704,0.517,1.152,0.517c0.437,0,0.818-0.172,1.144-0.517
			c0.325-0.344,0.488-0.734,0.488-1.168v-1.462c0-0.424-0.163-0.805-0.488-1.145c-0.326-0.339-0.707-0.508-1.144-0.508
			c-0.448,0-0.832,0.169-1.152,0.508c-0.32,0.339-0.48,0.721-0.48,1.145V32.017z"/>
	</g>
	<g>
		<path d="M237.258,41.485l1.735-0.369v-8.269h-1.981v-2.522h1.981v-1.477c0-1.493,0.431-2.644,1.292-3.452s2.071-1.212,3.63-1.212
			c0.303,0,0.613,0.022,0.929,0.067c0.315,0.045,0.662,0.109,1.04,0.191l-0.308,2.67c-0.197-0.033-0.388-0.062-0.572-0.086
			s-0.4-0.037-0.646-0.037c-0.583,0-1.023,0.16-1.323,0.48s-0.449,0.779-0.449,1.378v1.477h2.646v2.522h-2.646v8.269l1.735,0.369
			v2.153h-7.063V41.485z"/>
		<path d="M254.638,43.638c-0.098-0.222-0.185-0.449-0.258-0.683c-0.074-0.233-0.131-0.469-0.172-0.708
			c-0.426,0.492-0.945,0.89-1.556,1.194c-0.611,0.303-1.311,0.455-2.098,0.455c-1.304,0-2.34-0.354-3.107-1.064
			c-0.767-0.709-1.15-1.675-1.15-2.897c0-1.247,0.5-2.211,1.501-2.892s2.469-1.021,4.405-1.021h1.833v-1.304
			c0-0.64-0.185-1.136-0.554-1.489s-0.915-0.529-1.637-0.529c-0.41,0-0.775,0.047-1.095,0.142s-0.578,0.207-0.775,0.338
			l-0.234,1.427h-2.707l0.012-2.953c0.656-0.443,1.409-0.816,2.258-1.12c0.849-0.303,1.774-0.455,2.775-0.455
			c1.649,0,2.988,0.404,4.018,1.212c1.029,0.808,1.544,1.958,1.544,3.451v5.5c0,0.205,0.002,0.398,0.006,0.578
			c0.004,0.181,0.019,0.353,0.043,0.517l1.095,0.147v2.153H254.638z M251.525,41.239c0.542,0,1.034-0.117,1.477-0.351
			s0.788-0.527,1.034-0.88v-2.03h-1.833c-0.763,0-1.341,0.178-1.735,0.535c-0.394,0.357-0.591,0.786-0.591,1.286
			c0,0.451,0.146,0.804,0.437,1.058C250.604,41.112,251.008,41.239,251.525,41.239z"/>
		<path d="M272.203,37.35c0,1.985-0.443,3.572-1.329,4.762c-0.886,1.189-2.166,1.784-3.839,1.784c-0.779,0-1.456-0.162-2.03-0.486
			c-0.574-0.324-1.058-0.794-1.452-1.409l-0.258,1.637h-3.101V26.977l-1.907-0.369v-2.166h5.488v7.297
			c0.385-0.533,0.847-0.943,1.384-1.23c0.537-0.287,1.154-0.431,1.852-0.431c1.69,0,2.978,0.638,3.864,1.913
			c0.886,1.276,1.329,2.976,1.329,5.101V37.35z M268.623,37.092c0-1.296-0.191-2.324-0.572-3.083s-1.032-1.138-1.95-1.138
			c-0.558,0-1.03,0.117-1.415,0.351c-0.386,0.234-0.689,0.568-0.911,1.003v5.623c0.221,0.411,0.527,0.722,0.917,0.936
			s0.868,0.32,1.434,0.32c0.927,0,1.575-0.326,1.944-0.979c0.369-0.652,0.554-1.577,0.554-2.774V37.092z"/>
		<path d="M272.959,26.608v-2.166h5.513v16.673l1.735,0.369v2.153h-7.063v-2.153l1.735-0.369V26.977L272.959,26.608z"/>
		<path d="M289.576,43.638c-0.098-0.222-0.185-0.449-0.258-0.683c-0.074-0.233-0.131-0.469-0.172-0.708
			c-0.426,0.492-0.945,0.89-1.556,1.194c-0.611,0.303-1.311,0.455-2.098,0.455c-1.304,0-2.34-0.354-3.107-1.064
			c-0.767-0.709-1.15-1.675-1.15-2.897c0-1.247,0.5-2.211,1.501-2.892s2.469-1.021,4.405-1.021h1.833v-1.304
			c0-0.64-0.185-1.136-0.554-1.489s-0.915-0.529-1.637-0.529c-0.41,0-0.775,0.047-1.095,0.142s-0.578,0.207-0.775,0.338
			l-0.234,1.427h-2.707l0.012-2.953c0.656-0.443,1.409-0.816,2.258-1.12c0.849-0.303,1.774-0.455,2.775-0.455
			c1.649,0,2.988,0.404,4.018,1.212c1.029,0.808,1.544,1.958,1.544,3.451v5.5c0,0.205,0.002,0.398,0.006,0.578
			c0.004,0.181,0.019,0.353,0.043,0.517l1.095,0.147v2.153H289.576z M286.463,41.239c0.542,0,1.034-0.117,1.477-0.351
			s0.788-0.527,1.034-0.88v-2.03h-1.833c-0.763,0-1.341,0.178-1.735,0.535c-0.394,0.357-0.591,0.786-0.591,1.286
			c0,0.451,0.146,0.804,0.437,1.058C285.542,41.112,285.946,41.239,286.463,41.239z"/>
		<path d="M307.141,37.35c0,1.985-0.443,3.572-1.329,4.762c-0.886,1.189-2.166,1.784-3.839,1.784c-0.779,0-1.456-0.162-2.03-0.486
			c-0.574-0.324-1.058-0.794-1.452-1.409l-0.258,1.637h-3.101V26.977l-1.907-0.369v-2.166h5.488v7.297
			c0.385-0.533,0.847-0.943,1.384-1.23c0.537-0.287,1.154-0.431,1.852-0.431c1.69,0,2.978,0.638,3.864,1.913
			c0.886,1.276,1.329,2.976,1.329,5.101V37.35z M303.56,37.092c0-1.296-0.191-2.324-0.572-3.083s-1.032-1.138-1.95-1.138
			c-0.558,0-1.03,0.117-1.415,0.351c-0.386,0.234-0.689,0.568-0.911,1.003v5.623c0.221,0.411,0.527,0.722,0.917,0.936
			s0.868,0.32,1.434,0.32c0.927,0,1.575-0.326,1.944-0.979c0.369-0.652,0.554-1.577,0.554-2.774V37.092z"/>
		<path d="M319.39,34.902h-2.412l-0.381-1.661c-0.246-0.197-0.556-0.361-0.929-0.492s-0.786-0.197-1.236-0.197
			c-0.632,0-1.132,0.142-1.501,0.424c-0.369,0.283-0.554,0.638-0.554,1.064c0,0.402,0.176,0.736,0.529,1.003
			c0.353,0.267,1.058,0.502,2.116,0.708c1.649,0.328,2.871,0.81,3.667,1.446c0.795,0.636,1.193,1.511,1.193,2.627
			c0,1.198-0.515,2.176-1.544,2.935c-1.03,0.759-2.385,1.138-4.067,1.138c-1.025,0-1.967-0.15-2.824-0.449
			c-0.857-0.299-1.618-0.728-2.283-1.286l-0.037-2.99h2.51l0.492,1.735c0.213,0.18,0.504,0.313,0.874,0.4
			c0.369,0.086,0.755,0.129,1.157,0.129c0.73,0,1.286-0.131,1.667-0.394s0.572-0.619,0.572-1.071c0-0.394-0.193-0.734-0.579-1.021
			s-1.095-0.542-2.128-0.763c-1.567-0.32-2.75-0.793-3.55-1.421s-1.2-1.483-1.2-2.565c0-1.116,0.459-2.078,1.378-2.886
			c0.918-0.808,2.227-1.212,3.925-1.212c1.033,0,2.012,0.14,2.935,0.418s1.646,0.636,2.172,1.07L319.39,34.902z"/>
	</g>
</g>
</svg>
