<?xml version="1.0" encoding="utf-8"?>
<!-- Generator: Adobe Illustrator 16.0.0, SVG Export Plug-In . SVG Version: 6.00 Build 0)  -->
<!DOCTYPE svg PUBLIC "-//W3C//DTD SVG 1.1//EN" "http://www.w3.org/Graphics/SVG/1.1/DTD/svg11.dtd">
<svg version="1.1" id="Capa_1" xmlns="http://www.w3.org/2000/svg" xmlns:xlink="http://www.w3.org/1999/xlink" x="0px" y="0px"
	 width="500px" height="500px" viewBox="0 0 500 500" enable-background="new 0 0 500 500" xml:space="preserve">
<path fill="none" stroke="#000000" stroke-miterlimit="10" d="M119.941,94.365H98.64l-5.543,12.085h-8.089l24.621-52.884
	l23.751,52.884h-8.218L119.941,94.365z M116.88,87.307l-7.38-16.919l-7.734,16.919H116.88z"/>
<path fill="none" stroke="#000000" stroke-miterlimit="10" d="M159.967,106.45V56.692h7.477c3.33,0,5.983,0.258,7.96,0.773
	c1.998,0.516,3.685,1.386,5.06,2.61c1.396,1.268,2.502,2.847,3.319,4.737c0.838,1.913,1.257,3.846,1.257,5.801
	c0,3.566-1.365,6.585-4.093,9.056c2.643,0.902,4.726,2.481,6.252,4.737c1.547,2.235,2.32,4.834,2.32,7.799
	c0,3.889-1.375,7.176-4.125,9.861c-1.655,1.655-3.513,2.804-5.575,3.448c-2.256,0.624-5.081,0.935-8.476,0.935H159.967z
	 M167.476,78.058h2.353c2.792,0,4.839-0.617,6.139-1.853c1.3-1.235,1.95-3.056,1.95-5.462c0-2.341-0.666-4.12-1.998-5.333
	c-1.333-1.213-3.266-1.821-5.801-1.821h-2.643V78.058z M167.476,99.392h4.641c3.395,0,5.886-0.666,7.477-1.998
	c1.676-1.439,2.514-3.266,2.514-5.479c0-2.148-0.806-3.953-2.417-5.414c-1.568-1.439-4.372-2.159-8.411-2.159h-3.803V99.392z"/>
<path fill="none" stroke="#000000" stroke-miterlimit="10" d="M256.131,59.35v8.879c-4.34-3.63-8.83-5.446-13.471-5.446
	c-5.113,0-9.421,1.837-12.923,5.511c-3.524,3.653-5.285,8.121-5.285,13.406c0,5.221,1.761,9.625,5.285,13.213
	c3.523,3.588,7.842,5.382,12.955,5.382c2.643,0,4.887-0.43,6.735-1.289c1.031-0.43,2.1-1.01,3.207-1.74
	c1.105-0.73,2.271-1.611,3.496-2.643v9.071c-4.297,2.439-8.809,3.658-13.535,3.658c-7.111,0-13.181-2.481-18.208-7.444
	c-5.006-5.006-7.509-11.042-7.509-18.111c0-6.337,2.095-11.988,6.284-16.951c5.156-6.08,11.827-9.12,20.013-9.12
	C247.644,55.725,251.963,56.934,256.131,59.35z"/>
<path fill="none" stroke="#000000" stroke-miterlimit="10" d="M285.973,106.45V56.692h10.441c5.006,0,8.959,0.495,11.859,1.482
	c3.115,0.967,5.94,2.61,8.476,4.931c5.135,4.684,7.702,10.839,7.702,18.466c0,7.649-2.675,13.836-8.024,18.562
	c-2.686,2.364-5.5,4.007-8.443,4.931c-2.75,0.924-6.649,1.386-11.698,1.386H285.973z M293.481,99.392h3.384
	c3.373,0,6.177-0.354,8.411-1.063c2.234-0.752,4.254-1.944,6.059-3.577c3.695-3.373,5.543-7.767,5.543-13.181
	c0-5.457-1.826-9.882-5.479-13.277c-3.287-3.029-8.132-4.544-14.534-4.544h-3.384V99.392z"/>
<path fill="none" stroke="#000000" stroke-miterlimit="10" d="M381.718,63.75H361.77v11.956h19.368v7.058H361.77v16.629h19.948
	v7.058h-27.457V56.692h27.457V63.75z"/>
<path fill="none" stroke="#000000" stroke-miterlimit="10" d="M115.559,145.75H98.221v11.956h16.726v7.058H98.221v23.687h-7.509
	v-49.758h24.847V145.75z"/>
<path fill="none" stroke="#000000" stroke-miterlimit="10" d="M170.215,162.54h20.561v1.644c0,3.738-0.44,7.047-1.321,9.926
	c-0.859,2.664-2.31,5.156-4.351,7.477c-4.62,5.2-10.495,7.799-17.628,7.799c-6.961,0-12.923-2.514-17.886-7.541
	c-4.963-5.048-7.444-11.107-7.444-18.176c0-7.219,2.524-13.342,7.573-18.369c5.048-5.048,11.193-7.573,18.434-7.573
	c3.888,0,7.52,0.792,10.893,2.374c3.223,1.583,6.392,4.154,9.507,7.713l-5.35,5.124c-4.082-5.435-9.056-8.153-14.921-8.153
	c-5.264,0-9.679,1.816-13.245,5.446c-3.566,3.566-5.35,8.036-5.35,13.406c0,5.543,1.987,10.108,5.962,13.696
	c3.717,3.331,7.745,4.995,12.085,4.995c3.695,0,7.014-1.243,9.958-3.729c2.943-2.507,4.587-5.507,4.931-9.001h-12.407V162.54z"/>
<path fill="none" stroke="#000000" stroke-miterlimit="10" d="M228.094,158.157h21.463v-19.465h7.509v49.758h-7.509v-23.235h-21.463
	v23.235h-7.509v-49.758h7.509V158.157z"/>
<path fill="none" stroke="#000000" stroke-miterlimit="10" d="M296.865,138.692v49.758h-7.509v-49.758H296.865z"/>
<path fill="none" stroke="#000000" stroke-miterlimit="10" d="M344.335,138.692v32.194c0,3.846-0.269,6.714-0.806,8.604
	c-0.537,2.148-1.45,3.964-2.739,5.446c-2.514,2.944-5.844,4.415-9.99,4.415c-3.137,0-6.069-0.82-8.798-2.46l3.674-6.434
	c1.826,1.225,3.534,1.837,5.124,1.837c2.234,0,3.781-0.848,4.641-2.544c0.902-1.696,1.354-4.659,1.354-8.888v-32.171H344.335z"/>
<path fill="none" stroke="#000000" stroke-miterlimit="10" d="M384.135,158.543l19.368-19.852h10.022l-22.494,22.526l22.623,27.231
	H403.6l-17.918-22.14l-1.547,1.547v20.593h-7.509v-49.758h7.509V158.543z"/>
<path fill="none" stroke="#000000" stroke-miterlimit="10" d="M98.221,220.692v42.7h14.631v7.058h-22.14v-49.758H98.221z"/>
<path fill="none" stroke="#000000" stroke-miterlimit="10" d="M138.601,270.45l10.474-53.496l17.08,38.672l17.692-38.672
	l9.41,53.496h-7.702l-4.802-30.035l-14.728,32.323l-14.309-32.355l-5.35,30.067H138.601z"/>
<path fill="none" stroke="#000000" stroke-miterlimit="10" d="M224.162,270.45v-53.142l36.287,37.963v-34.579h7.509v52.787
	l-36.287-37.866v34.837H224.162z"/>
<path fill="none" stroke="#000000" stroke-miterlimit="10" d="M297.768,245.346c0-7.004,2.567-13.02,7.702-18.047
	c5.113-5.027,11.258-7.541,18.434-7.541c7.09,0,13.17,2.535,18.24,7.605c5.092,5.07,7.638,11.161,7.638,18.272
	c0,7.154-2.557,13.224-7.67,18.208c-5.135,5.006-11.333,7.509-18.595,7.509c-6.424,0-12.192-2.224-17.306-6.671
	C300.582,259.762,297.768,253.316,297.768,245.346z M305.341,245.427c0,5.495,1.848,10.014,5.543,13.556
	c3.674,3.542,7.917,5.312,12.729,5.312c5.221,0,9.625-1.803,13.213-5.409c3.588-3.649,5.382-8.093,5.382-13.33
	c0-5.303-1.772-9.745-5.317-13.331c-3.523-3.606-7.885-5.409-13.084-5.409c-5.178,0-9.55,1.803-13.116,5.409
	C307.124,235.788,305.341,240.188,305.341,245.427z"/>
<path fill="none" stroke="#000000" stroke-miterlimit="10" d="M387.1,250.244v20.206h-7.509v-49.758h8.508
	c4.168,0,7.315,0.29,9.442,0.87c2.148,0.58,4.039,1.676,5.672,3.287c2.857,2.793,4.286,6.316,4.286,10.57
	c0,4.555-1.525,8.164-4.576,10.828s-7.165,3.996-12.343,3.996H387.1z M387.1,243.283h2.804c6.896,0,10.345-2.653,10.345-7.96
	c0-5.135-3.556-7.702-10.667-7.702H387.1V243.283z"/>
<path fill="none" stroke="#000000" stroke-miterlimit="10" d="M141.34,353.353h-9.442l-3.899-3.996
	c-4.146,2.664-8.766,3.996-13.857,3.996c-6.596,0-12.451-2.234-17.563-6.703c-5.564-4.92-8.347-11.204-8.347-18.853
	c0-7.498,2.631-13.75,7.896-18.756c5.113-4.855,11.15-7.283,18.111-7.283c6.316,0,11.977,2.127,16.983,6.381
	c6.015,5.113,9.023,11.784,9.023,20.013c0,6.445-2.374,12.171-7.122,17.177L141.34,353.353z M120.683,332.739l7.219,7.181
	c3.179-3.306,4.77-7.396,4.77-12.269c0-5.344-1.772-9.82-5.317-13.427s-7.949-5.409-13.213-5.409c-5.329,0-9.711,1.803-13.148,5.409
	c-3.459,3.586-5.188,8.125-5.188,13.62c0,5.367,1.783,9.757,5.35,13.17c3.717,3.521,7.96,5.28,12.729,5.28
	c3.244,0,6.176-0.74,8.798-2.222l-11.698-11.334H120.683z"/>
<path fill="none" stroke="#000000" stroke-miterlimit="10" d="M186.908,331.245l15.404,21.205h-9.185l-14.212-20.367h-1.354v20.367
	h-7.509v-49.758h8.798c6.574,0,11.322,1.235,14.244,3.706c3.223,2.75,4.834,6.381,4.834,10.893c0,3.523-1.01,6.553-3.029,9.088
	C192.881,328.914,190.216,330.536,186.908,331.245z M177.562,325.541h2.385c7.111,0,10.667-2.718,10.667-8.153
	c0-5.092-3.459-7.638-10.377-7.638h-2.675V325.541z"/>
<path fill="none" stroke="#000000" stroke-miterlimit="10" d="M258.29,310.072l-6.091,3.609c-1.139-1.977-2.224-3.266-3.255-3.867
	c-1.075-0.688-2.46-1.031-4.157-1.031c-2.084,0-3.814,0.592-5.188,1.774c-1.375,1.161-2.062,2.622-2.062,4.386
	c0,2.43,1.805,4.386,5.414,5.869l4.963,2.031c4.039,1.635,6.993,3.629,8.862,5.982c1.869,2.355,2.804,5.241,2.804,8.659
	c0,4.58-1.525,8.364-4.576,11.353c-3.072,3.01-6.886,4.515-11.44,4.515c-4.318,0-7.885-1.284-10.699-3.853
	c-2.771-2.566-4.501-6.17-5.188-10.811l7.605-1.676c0.343,2.922,0.945,4.941,1.805,6.059c1.547,2.148,3.803,3.223,6.768,3.223
	c2.341,0,4.286-0.783,5.833-2.351s2.32-3.553,2.32-5.958c0-0.966-0.135-1.852-0.403-2.656c-0.269-0.806-0.688-1.546-1.256-2.223
	c-0.57-0.676-1.306-1.31-2.208-1.899s-1.977-1.154-3.223-1.691l-4.802-1.996c-6.811-2.877-10.216-7.085-10.216-12.624
	c0-3.735,1.429-6.859,4.286-9.371c2.857-2.533,6.413-3.8,10.667-3.8C250.588,301.726,255.067,304.508,258.29,310.072z"/>
<path fill="none" stroke="#000000" stroke-miterlimit="10" d="M302.73,309.75v42.7h-7.509v-42.7h-11.44v-7.058h30.357v7.058H302.73z
	"/>
<path fill="none" stroke="#000000" stroke-miterlimit="10" d="M348.718,302.692v29.948c0,4.272,0.698,7.396,2.095,9.371
	c2.084,2.855,5.017,4.283,8.798,4.283c3.803,0,6.746-1.428,8.83-4.283c1.396-1.91,2.095-5.034,2.095-9.371v-29.948h7.509v32.033
	c0,5.242-1.633,9.561-4.898,12.955c-3.674,3.781-8.186,5.672-13.535,5.672s-9.851-1.891-13.503-5.672
	c-3.266-3.395-4.898-7.713-4.898-12.955v-32.033H348.718z"/>
<path fill="none" stroke="#000000" stroke-miterlimit="10" d="M93.226,384.692l13.761,34.482l13.954-34.482h8.218l-22.333,53.496
	l-21.817-53.496H93.226z"/>
<path fill="none" stroke="#000000" stroke-miterlimit="10" d="M158.162,384.692l12.955,33.258l13.535-35.675l12.955,35.675
	l13.761-33.258h8.153l-22.236,52.916l-12.794-35.256l-13.342,35.288l-21.141-52.948H158.162z"/>
<path fill="none" stroke="#000000" stroke-miterlimit="10" d="M256.485,408.443l-13.696-23.751h8.54l9.507,16.854l9.99-16.854h8.604
	l-14.341,23.751l15.05,26.007h-8.411l-11.021-19.046l-11.344,19.046h-8.508L256.485,408.443z"/>
<path fill="none" stroke="#000000" stroke-miterlimit="10" d="M317.265,412.955l-16.242-28.263h8.637l11.376,19.884l11.408-19.884
	h8.637l-16.307,28.263v21.495h-7.509V412.955z"/>
<path fill="none" stroke="#000000" stroke-miterlimit="10" d="M375.788,427.393h23.88v7.058h-36.223l24.428-42.7h-20.432v-7.058
	h32.774L375.788,427.393z"/>
</svg>
